<?xml version="1.0" encoding="UTF-8"?>
<svg width="78px" height="68px" viewBox="0 0 78 68" version="1.1" xmlns="http://www.w3.org/2000/svg" xmlns:xlink="http://www.w3.org/1999/xlink">
    <!-- Generator: Sketch 53.2 (72643) - https://sketchapp.com -->
    <title>健康出行</title>
    <desc>Created with Sketch.</desc>
    <defs>
        <linearGradient x1="50%" y1="0%" x2="50%" y2="100%" id="linearGradient-1">
            <stop stop-color="#59C0FF" offset="0%"></stop>
            <stop stop-color="#479FFF" offset="100%"></stop>
        </linearGradient>
    </defs>
    <g id="Page-1" stroke="none" stroke-width="1" fill="none" fill-rule="evenodd">
        <g id="健康出行4-copy" transform="translate(-321.000000, -1049.000000)" fill="url(#linearGradient-1)">
            <path d="M395.722635,1074.4524 C396.336635,1074.6374 396.706635,1075.2574 396.575635,1075.8824 L395.798635,1079.5844 C395.651635,1080.2814 394.941635,1080.7104 394.251635,1080.5164 L393.752635,1080.3764 L389.158635,1101.2664 C389.038635,1101.8114 388.493635,1102.1534 387.948635,1102.0264 L376.836635,1099.4314 C376.269635,1099.2994 375.933635,1098.7164 376.107635,1098.1624 L376.236635,1097.7504 L369.391635,1097.5984 C368.535635,1097.5784 367.969635,1096.7024 368.309635,1095.9194 L370.383635,1091.1364 C370.661635,1090.4934 371.430635,1090.2234 372.054635,1090.5474 L377.586635,1093.4304 L382.640635,1077.2624 L382.153635,1077.1254 C381.406635,1076.9154 381.035635,1076.0814 381.382635,1075.3894 L382.533635,1071.3614 C382.802635,1070.8254 383.420635,1070.5604 383.997635,1070.7344 L395.722635,1074.4524 Z M372.637635,1085.262 C372.262635,1086.301 370.645635,1087.192 369.420635,1087.514 L367.343635,1088.159 C366.865635,1088.308 366.534635,1088.746 366.524635,1089.247 L366.488635,1090.925 C364.001635,1091.106 362.064635,1092.397 362.064635,1093.981 C362.064635,1095.559 363.985635,1096.847 366.458635,1097.034 C366.307635,1099.201 364.966635,1101.123 362.939635,1101.977 C360.913635,1102.439 358.841635,1102.675 356.762635,1102.681 L353.566635,1102.681 L353.566635,1110.293 C353.445635,1110.954 352.857635,1111.428 352.184635,1111.404 C352.184635,1111.404 341.905635,1111.318 337.057635,1111.318 C328.054635,1111.318 306.908635,1055.307 344.762635,1054 L347.525635,1054 C351.733635,1054 355.550635,1054.46 359.209635,1056.106 C365.018635,1058.852 368.575635,1066.307 367.426635,1073.301 C369.046635,1076.266 370.241635,1078.332 371.482635,1080.843 C372.331635,1082.281 373.106635,1083.658 372.637635,1085.262 Z" id="合并形状"></path>
        </g>
    </g>
</svg>