<?xml version="1.0" encoding="utf-8"?>
<!-- Generator: Adobe Illustrator 22.1.0, SVG Export Plug-In . SVG Version: 6.00 Build 0)  -->
<svg version="1.1" id="图层_1" xmlns="http://www.w3.org/2000/svg" xmlns:xlink="http://www.w3.org/1999/xlink" x="0px" y="0px"
	 viewBox="0 0 220 330" style="enable-background:new 0 0 220 330;" xml:space="preserve">
<style type="text/css">
	.st0{clip-path:url(#SVGID_2_);}
	.st1{fill:#FFCCB0;}
	.st2{fill:none;stroke:#000000;stroke-width:2;stroke-linecap:round;stroke-linejoin:round;stroke-miterlimit:10;}
	.st3{fill:#FFEAE0;}
	.st4{fill:#FF938F;}
	.st5{fill:#794611;}
	.st6{fill:#986024;}
	.st7{fill:#FFEAE0;stroke:#000000;stroke-width:1.5;stroke-miterlimit:10;}
	.st8{fill:#56D2A5;}
	.st9{fill:#B1FED3;}
	.st10{fill:#FFCDB0;}
	.st11{fill:#58AAC9;}
	.st12{fill:#79C3E2;}
	.st13{fill:#58AAC9;stroke:#000000;stroke-width:2;stroke-linecap:round;stroke-linejoin:round;stroke-miterlimit:10;}
</style>
<g>
	<defs>
		<rect id="SVGID_1_" x="4" y="3.5" width="212" height="323"/>
	</defs>
	<clipPath id="SVGID_2_">
		<use xlink:href="#SVGID_1_"  style="overflow:visible;"/>
	</clipPath>
	<g class="st0">
		<g>
			<path class="st1" d="M150.3,49.9c0,0,3.9,2,4.1,10.8c0.2,8.7,0.3,14.3,0.7,19.7s4.5,14.9,7.9,18.5c3.3,3.4,2.1,7.9-5.2,9.3
				c-0.4,0.1-0.8,0.1-1.3,0.2l-3.2,0.5l5-0.7c0,0-0.4,5.3-0.2,6.3s3.1,5.2-1.3,5.3c-4.4,0.1-12.2,0.1-12.2,0.1s-7.4,0.4-7,8.4
				c0.4,8,7,6.9,9.3,7.3c2.3,0.4,6.9-0.7,2.4,7c0,0-2.3,4.7-3.4,9.7c-1.1,5-3.4,7.8-4.6,9.2c-1.3,1.5-3.6,3.3-14.3,0.4
				c-10.7-3-26.9-12.1-29.3-13.9c2.1,1.8,12.8,7.3,13.5,7.7c0,0-4,4.8-4.1,11.9s-0.5,13.9-0.5,13.9s-35.9-19.2-40.3-18.8v-32.2
				c0,0,4.7,6.5,5.4,6.5s1.2-12.3,1.1-15.2s0-5.2,0-5.2s-5.1-2.5-5.5-12.2c-0.4-9.8,3.4-19.5,10.7-19.1c4.4,0.3,6.4,4.4,6.4,4.4
				s0.6-3.7,2.6-3.6c1.9,0.1,1.2-8.2,1.2-8.2l6.5-4.8l7.6-6.6c0,0-0.4-2.5,4.2-5.1c4.6-2.6,15.9-7.8,27.9-9.2S150.3,49.9,150.3,49.9
				z"/>
			<path d="M150.4,48.9c0.1,0,0.2,0,0.3,0.1c0,0,0.1,0,0.1,0.1l0,0l0.1,0.1l0.2,0.1c0.1,0.1,0.2,0.1,0.3,0.2
				c0.2,0.1,0.3,0.3,0.5,0.4c0.3,0.3,0.6,0.6,0.8,0.9c0.5,0.7,0.9,1.4,1.2,2.1c0.6,1.5,1,3,1.2,4.5c0.2,1.5,0.3,3.1,0.3,4.5l0.1,4.4
				c0.1,2.9,0.1,5.8,0.3,8.8c0.1,1.5,0.2,2.9,0.3,4.4c0.1,0.7,0.1,1.4,0.2,2.1c0.1,0.7,0.3,1.4,0.4,2.1c0.7,2.8,1.7,5.5,3,8.1
				c0.6,1.3,1.3,2.6,2,3.8c0.4,0.6,0.8,1.2,1.2,1.7c0.4,0.6,0.8,1,1.4,1.7c1,1.3,1.8,3.1,1.3,4.9c-0.2,0.9-0.7,1.7-1.3,2.4
				c-0.6,0.6-1.3,1.2-2,1.6c-1.4,0.8-2.9,1.2-4.4,1.6l-4.4,0.7l-0.3-2l5-0.7l0,0c0.5-0.1,1.1,0.3,1.1,0.8c0,0.1,0,0.2,0,0.2
				c-0.1,1.3-0.2,2.7-0.3,4c0,0.7,0,1.3,0,1.9c0,0.1,0,0.2,0.1,0.3l0.2,0.4l0.4,1c0.3,0.7,0.5,1.4,0.5,2.4c0,0.5-0.2,1-0.6,1.5
				c-0.2,0.2-0.4,0.4-0.6,0.5c-0.2,0.1-0.4,0.2-0.7,0.3l-0.6,0.2l-0.6,0.1c-0.4,0-0.7,0-1.1,0l-2,0l-8.1,0l-1,0c-0.2,0-0.3,0-0.4,0
				c-0.1,0-0.3,0-0.4,0.1c-0.6,0.1-1.2,0.3-1.8,0.5c-1.1,0.5-2.1,1.3-2.7,2.2c-1.3,2-1.3,4.8-0.6,7.2c0.4,1.2,1.1,2.1,2.1,2.8
				c1,0.6,2.2,0.9,3.5,1l2,0.2l1,0.1l1,0.1c0.7,0.1,1.5,0.1,2.3,0.6c0.2,0.1,0.4,0.3,0.6,0.5c0.2,0.2,0.3,0.4,0.4,0.6
				c0.1,0.2,0.1,0.5,0.2,0.7c0,0.2,0,0.4,0,0.6c-0.2,1.6-0.9,2.8-1.5,4.1l-0.5,0.9l-0.4,0.9c-0.3,0.6-0.5,1.2-0.8,1.8
				c-1,2.5-1.8,5-2.4,7.7c-0.7,2.7-1.9,5.3-3.7,7.5c-0.4,0.6-0.9,1.1-1.4,1.6c-0.5,0.5-1.2,0.9-1.9,1.1c-1.4,0.5-2.9,0.5-4.2,0.4
				c-2.8-0.2-5.5-0.9-8.1-1.6c-5.3-1.6-10.2-3.8-15.1-6.2c-2.4-1.2-4.9-2.5-7.2-3.8c-2.4-1.3-4.8-2.6-7-4.2l0,0l0.4-0.5
				c1,0.8,2.1,1.4,3.2,2.1c1.1,0.7,2.2,1.3,3.4,1.9c2.3,1.2,4.6,2.4,6.8,3.6l0,0c0.2,0.1,0.2,0.3,0.2,0.5l0,0l0,0
				c-1.3,1.7-2.2,3.8-2.8,5.8c-0.6,2.1-0.9,4.2-0.9,6.4l-0.2,13.4l0,0c0,0.5-0.5,1-1,1c-0.2,0-0.3,0-0.4-0.1l0,0
				c-6.5-3.5-13.1-6.9-19.8-10.2c-3.3-1.6-6.7-3.3-10-4.8c-1.7-0.8-3.4-1.5-5.1-2.2c-0.8-0.3-1.7-0.7-2.6-0.9
				c-0.4-0.1-0.8-0.3-1.3-0.4c-0.4-0.1-0.8-0.2-1-0.2l-0.1,0c-0.5,0-1-0.5-1-1v-32.2c0-0.6,0.4-1,1-1c0.3,0,0.6,0.2,0.8,0.4l0,0
				c1.4,1.9,2.9,3.9,4.4,5.6c0.1,0.1,0.2,0.2,0.3,0.3c0.1,0.1,0.2,0.2,0.2,0.2l0,0c0,0-0.1-0.1-0.2-0.1c0,0-0.1,0-0.1,0l-0.1,0
				c0,0-0.2,0-0.2,0c-0.2,0-0.4,0.2-0.5,0.3c0,0,0,0-0.1,0.1c-0.1,0.2,0,0,0-0.1c0.1-0.5,0.2-1.1,0.3-1.7c0.1-1.2,0.2-2.4,0.3-3.6
				c0.1-2.4,0.2-4.8,0.3-7.2c0-0.6,0-1.2,0-1.8c0-0.6-0.1-1.2-0.1-1.8c0-1.2,0-2.5,0.1-3.7l0.6,1c-1.1-0.6-1.8-1.3-2.5-2.2
				c-0.7-0.8-1.2-1.7-1.7-2.7c-0.9-1.9-1.4-3.9-1.6-5.9c-0.5-4-0.2-8,0.8-11.9c0.5-1.9,1.2-3.9,2.3-5.6c1.1-1.8,2.5-3.4,4.6-4.3
				c0.5-0.2,1-0.4,1.6-0.5l0.8-0.2l0.8,0c1.1-0.1,2.2,0.2,3.2,0.6c1,0.4,1.9,1.1,2.7,1.8c0.8,0.8,1.4,1.5,2,2.6l-1.9,0.3
				c0.1-0.7,0.3-1.2,0.5-1.8c0.2-0.6,0.5-1.2,1.1-1.8c0.3-0.3,0.6-0.6,1.1-0.7c0.2-0.1,0.5-0.1,0.7-0.1c0.4,0,0.1,0,0.1,0
				c-0.2,0.1,0,0,0-0.1c0.1-0.2,0.1-0.4,0.2-0.6c0.2-0.9,0.3-2.1,0.3-3.1c0-1.1,0-2.2-0.1-3.3l0,0c0-0.4,0.1-0.7,0.4-0.9l6.5-4.8
				l-0.1,0l7.6-6.6l-0.3,0.9c0-0.3,0-0.5,0-0.7c0-0.2,0.1-0.4,0.1-0.5c0.1-0.3,0.2-0.7,0.4-1c0.3-0.6,0.7-1.1,1.1-1.5
				c0.8-0.9,1.8-1.6,2.8-2.2c1.9-1.2,3.9-2.1,5.9-3c4-1.8,8.2-3.3,12.4-4.5c2.1-0.6,4.3-1.1,6.5-1.5c2.2-0.4,4.4-0.6,6.6-0.9
				L150.4,48.9z M150.1,50.8l-12.8,1.7c-2.1,0.3-4.3,0.5-6.4,0.9c-2.1,0.4-4.2,0.9-6.3,1.4c-4.2,1.1-8.2,2.6-12.2,4.4
				c-2,0.9-3.9,1.8-5.7,2.9c-0.9,0.5-1.7,1.1-2.3,1.8c-0.3,0.4-0.6,0.7-0.8,1.1c-0.1,0.2-0.2,0.4-0.2,0.6c0,0.1,0,0.2-0.1,0.3
				c0,0.1,0,0.2,0,0.1l-0.3,0.9l-7.6,6.6l-0.1,0l-6.5,4.8l0.4-0.9c0.1,1.2,0.1,2.3,0.1,3.5c0,1.2,0,2.3-0.3,3.6
				c-0.1,0.3-0.2,0.6-0.3,1c-0.2,0.3-0.4,0.8-1.1,1.1c-1,0.3-0.7,0.1-0.9,0.2c-0.1,0-0.2,0.1-0.3,0.2c-0.5,0.5-0.9,1.6-1,2.5
				c-0.1,0.5-0.6,0.9-1.2,0.8c-0.3-0.1-0.6-0.2-0.7-0.5l0,0c-0.8-1.4-2.1-2.8-3.7-3.4c-0.8-0.3-1.6-0.5-2.4-0.4l-0.6,0l-0.6,0.1
				c-0.4,0.1-0.8,0.2-1.2,0.4c-1.5,0.7-2.8,2-3.7,3.5c-0.9,1.5-1.6,3.3-2.1,5.1c-0.9,3.6-1.2,7.5-0.7,11.1c0.2,1.8,0.7,3.6,1.5,5.3
				c0.4,0.8,0.8,1.6,1.4,2.3c0.3,0.3,0.6,0.7,0.9,0.9c0.3,0.3,0.7,0.6,0.9,0.7l0,0c0.4,0.2,0.6,0.6,0.5,1c-0.1,1.1-0.1,2.4-0.1,3.5
				c0,0.6,0,1.2,0.1,1.8c0,0.6,0,1.2,0,1.9c0,2.4-0.1,4.9-0.3,7.3c-0.1,1.2-0.2,2.4-0.3,3.7c-0.1,0.6-0.1,1.2-0.3,1.9
				c-0.1,0.2,0,0.3-0.3,0.7c0,0.1-0.1,0.1-0.1,0.2c-0.1,0.1-0.3,0.3-0.5,0.3c-0.1,0-0.3,0-0.3,0l-0.1,0c-0.1,0-0.1,0-0.2-0.1
				c-0.1,0-0.3-0.1-0.4-0.2l-0.1-0.1c-0.2-0.1-0.3-0.3-0.4-0.4c-0.1-0.1-0.2-0.2-0.3-0.4c-1.7-1.9-3.1-3.8-4.5-5.8l1.8-0.6v32.2
				l-1.1-1c0.7,0,1.2,0.1,1.7,0.2c0.5,0.1,1,0.3,1.4,0.4c0.9,0.3,1.8,0.6,2.7,1c1.7,0.7,3.5,1.5,5.1,2.2c3.4,1.5,6.7,3.2,10.1,4.8
				c6.7,3.3,13.3,6.7,19.8,10.2l-1.5,0.8l0,0l0.8-13.3c0.1-2.3,0.5-4.6,1.3-6.7c0.8-2.1,1.8-4.2,3.3-6l0.1,0.6l0,0
				c-2.3-1.2-4.6-2.4-6.9-3.6c-1.1-0.6-2.3-1.3-3.4-1.9c-1.1-0.7-2.2-1.3-3.3-2.2c-0.1-0.1-0.2-0.3-0.1-0.5c0.1-0.1,0.3-0.2,0.5-0.1
				l0,0l0,0c2.2,1.5,4.6,2.8,7,4.1c2.4,1.3,4.8,2.5,7.2,3.7c4.9,2.3,9.9,4.5,15,6c2.6,0.7,5.2,1.3,7.9,1.5c1.3,0.1,2.6,0,3.8-0.4
				c0.6-0.2,1.1-0.5,1.5-0.9c0.4-0.4,0.9-1,1.3-1.5c1.6-2.1,2.7-4.5,3.4-7.1c0.6-2.6,1.4-5.3,2.4-7.8c0.3-0.6,0.5-1.3,0.8-1.9l0.4-1
				l0.5-0.9c0.6-1.2,1.2-2.4,1.3-3.5c0-0.6-0.1-0.9-0.4-1.1c-0.4-0.2-1-0.3-1.7-0.4l-1-0.1l-1-0.1l-2-0.1c-1.4-0.1-2.9-0.4-4.2-1.2
				c-1.3-0.8-2.3-2.2-2.8-3.6c-0.5-1.4-0.6-2.9-0.6-4.3c0.1-1.5,0.4-3,1.3-4.3c1.7-2.6,4.9-3.9,7.7-3.7l8.1-0.1l2,0
				c0.7,0,1.3,0,1.7-0.2c0.4-0.2,0.5-0.3,0.5-0.6c0-0.4-0.1-1-0.4-1.6l-0.4-0.9l-0.2-0.5c-0.1-0.2-0.2-0.5-0.2-0.7
				c-0.1-0.8-0.1-1.5,0-2.2c0-1.4,0.1-2.7,0.2-4.1l1.1,1.1l0,0l-5,0.7c-0.5,0.1-1.1-0.3-1.1-0.9c-0.1-0.5,0.3-1,0.8-1.1l4.3-0.7
				c1.4-0.3,2.7-0.7,3.8-1.3c1.1-0.6,2-1.6,2.3-2.6c0.3-1.1-0.2-2.3-1-3.2c-0.4-0.4-1-1.1-1.4-1.7c-0.5-0.6-0.9-1.2-1.3-1.9
				c-0.8-1.3-1.5-2.6-2.1-4c-1.3-2.7-2.3-5.5-3.1-8.4c-0.2-0.7-0.3-1.5-0.5-2.2c-0.1-0.8-0.2-1.5-0.2-2.3c-0.1-1.5-0.2-2.9-0.3-4.4
				c-0.1-2.9-0.2-5.9-0.3-8.8l-0.1-4.4c0-1.5-0.1-2.9-0.3-4.3c-0.2-1.4-0.5-2.7-1.1-4c-0.3-0.6-0.6-1.2-1-1.7
				c-0.2-0.3-0.4-0.5-0.6-0.7c-0.1-0.1-0.2-0.2-0.3-0.3c-0.1,0-0.1-0.1-0.2-0.1c0,0-0.1,0-0.1-0.1l0,0l0,0c0,0,0.1,0,0.1,0
				C150,50.8,150.1,50.8,150.1,50.8z"/>
		</g>
		<g>
			<path d="M73.1,101.4c0-0.9,0.1-1.8,0.6-2.7c0.5-0.9,1.6-1.4,2.6-1.5c2-0.1,3.8,0.8,5.2,2c1.4,1.3,2.4,3,2.9,4.7
				c0.6,1.7,0.8,3.5,0.9,5.3c0,0.4-0.3,0.8-0.7,0.8c-0.4,0-0.7-0.3-0.8-0.6l0,0c-0.2-1.7-0.5-3.3-1-4.8c-0.5-1.5-1.3-3-2.4-4
				c-0.6-0.5-1.2-1-1.9-1.3c-0.7-0.3-1.5-0.6-2.2-0.6c-0.7,0-1.4,0.2-1.9,0.7c-0.5,0.5-0.9,1.3-1.1,2.1l0,0c0,0.1-0.1,0.1-0.2,0.1
				C73.1,101.5,73.1,101.5,73.1,101.4z"/>
		</g>
		<g>
			<path d="M80.8,101.4c-0.8,0.3-1.7,0.8-2.5,1.4c-0.8,0.6-1.4,1.4-1.9,2.2c-0.5,0.9-0.8,1.8-0.9,2.9c-0.1,0.5,0,1-0.1,1.6
				c0,0.5,0.1,1,0.2,1.6l0,0c0,0.1,0,0.1-0.1,0.1c-0.1,0-0.1,0-0.1-0.1c-0.1-0.5-0.3-1-0.4-1.6c-0.1-0.5-0.2-1.1-0.2-1.6
				c-0.1-1.1,0.2-2.2,0.5-3.3c0.4-1.1,1-2.1,1.9-2.9c0.8-0.8,1.7-1.5,2.9-2.1c0.5-0.2,1.1,0,1.3,0.5c0.2,0.5,0,1.1-0.5,1.3
				C80.9,101.3,80.9,101.3,80.8,101.4L80.8,101.4z"/>
		</g>
		<path class="st3" d="M143.6,119.4c0,0,7.8,0,12.2-0.1c4.8-0.1,1.6-3.9,1.4-5c-0.2-1.1,0.1-5.7,0.1-5.7l-5.1,0l3.2-0.5
			c0.4-0.1,0.9-0.1,1.3-0.2c7.2-1.4,8.4-5.9,5.2-9.4c-3.4-3.6-7.5-13.1-7.9-18.6c-0.4-5.5-0.6-11.1-0.7-19.8c0-1.8-0.3-3.3-0.6-4.6
			c-3.3-2-24.8,2.1-32.4,5.4C110,65.2,110,65.2,110,65.2s-6.4,18.4-6.9,42.8c-0.5,24.3,20.6,44.6,24,48.3c0.9,1,2.7,2.7,5.9,6.2
			c4.1,0.7,6.5,0.1,7.5-0.9c1.2-1.3,3.9-3.9,4.9-9.1c1-5.1,3.4-9.5,3.4-9.5c4.5-7.8-0.1-6.3-2.4-6.7c-2.3-0.4-9.1-0.1-9.5-8.2
			C136.4,119.9,143.6,119.4,143.6,119.4z"/>
		<path class="st2" d="M149.2,71.2c0,0-4.1-2.9-12.7-0.5c-8.5,2.4-8.4,5-8.4,5"/>
		<ellipse cx="143.4" cy="84.5" rx="3.8" ry="7.5"/>
		<ellipse class="st4" cx="123.1" cy="101.7" rx="12.2" ry="7.8"/>
		<g>
			<path class="st5" d="M64.5,142c-3.3,0-7.7-0.2-9.4-0.6c-2.4-0.7-5.3-2.5-8.1-5.2c-2.7-2.6-4.9-9.3-7-21.6c-1-6-2.8-12.5-4.6-18.8
				c-1.8-6.6-3.5-12.8-4-17.3c-0.7-6.4-1.6-25.4,3.6-29.7c2-1.6,2-2.2,2-2.2c0,0,0,0,0,0c-0.1,0-0.3-0.1-0.5-0.1c0,0-0.1,0-0.1,0
				c-2.6-0.4-3.9-1-4.4-2c-0.4-1,0.3-2,0.9-2.9c0.1-0.2,0.3-0.4,0.4-0.6c0.7-1.1,2.7-1.7,6.1-1.7c0.6,0,1.2,0,1.6,0
				c0-0.6,0.1-1.8,0-3.5c0-0.6-0.1-1.2-0.1-1.8c-0.2-2.7-0.4-5.4,2-7.1c0.4-0.3,0.8-0.4,1.1-0.4c2.4,0,3.2,5.2,3.4,7.8
				c0.7-0.5,1.6-1.2,2.8-2c2.4-1.7,5.5-3.9,7.6-5.6c3-2.3,8.2-4.3,16.2-7.3c2.8-1,5.9-2.2,9.2-3.5c12.1-4.7,26.6-7.3,37.2-9.1
				l2.3-0.4c2.3-0.4,4.1-0.6,5.5-0.6c1.9,0,3,0.4,3.5,1.2c0.6,0.9,0.1,1.9-0.2,2.6c-0.1,0.2-0.1,0.3-0.2,0.4c-0.1,0.3,0,0.3,0,0.4
				c0.3,0.5,2.7,1,5.6,1.6c1.2,0.2,2.6,0.5,4.1,0.9c7.6,1.6,12.5,3.5,13.3,7.5c0,0.2,0,0.5-0.2,0.6c-0.1,0.2-0.3,0.3-0.6,0.3
				c0,0,0,0,0,0c-0.1,0-0.3,0-0.4,0c-2.9,0-5.1,2-5.2,3.7c-0.1,1.9,1.9,3.3,5.4,3.7c4.1,0.5,6,1.4,6.2,2.8c0.3,1.6-2,2.8-2.4,3
				c-0.1,0-0.2,0.1-0.3,0.1c-4.4,0.4-9.6,1.1-10.2,1.6l-0.1,0.1c-0.1,0.1-0.3,0.3-0.4,0.4c0.4,0.3,2.1,0.9,9.2,0.9
				c7.1,0.1,8.3,1.2,8.6,2.3c0.4,1.4-1.4,2.6-1.8,2.8c-0.1,0.1-0.2,0.1-0.3,0.1c-1.5,0.2-3.2,0.5-4.1,0.8c0.4,0.1,1.1,0.3,2,0.4
				c4,0.6,6,1.8,6,3.5c0,1.6-1.9,2.7-3.2,2.9c-1,0.1-2.9,0.2-5.1,0.4c-2.2,0.1-4.7,0.2-6.5,0.4c-1.5,0.2-15.1,1.7-27.3,5
				c-10.9,3-16.9,6.8-18.8,8l-0.1,0.1c-0.3,0.2-0.4,0.4-0.5,0.7c-0.1,0.6,0.3,1.5,0.5,1.8c0.2,0.3,0.2,0.6,0,0.9
				C101.1,72.4,92.9,77.1,91,78l-0.3,0.1c-0.2,0.1-0.4,0.2-0.4,0.2c0,0.1,0,0.6,0,1.2c0,0.8,0,2.1-0.1,4c-0.1,2.3-0.4,4.2-1.9,4.2
				c-0.2,0-0.4,0-0.5-0.1c-0.1,0-0.2,0-0.3,0c-0.1,0-0.2,0-0.5,0.5c-0.5,1-0.5,2.7,0.1,4.9l0.8,2.2c0.1,0.4-0.1,0.8-0.4,0.9
				c-0.1,0-0.2,0.1-0.3,0.1c-0.3,0-0.6-0.2-0.7-0.4c0,0-0.4-1-0.8-2.3l-0.7-2c-2.7-3-5.4-4.7-7.3-4.7c-0.8,0-1.4,0.2-1.9,0.7
				L75.2,88c-2.2,2.1-5.8,5.7-6.9,15.3c-0.9,8,2.7,11.1,4.3,12.5c0.5,0.5,0.9,0.8,0.9,1.2c0,20.6-0.6,20.6-1.4,20.6
				c-0.1,0-0.3,0-0.4-0.1c-0.1,0-0.1-0.1-0.2-0.2c-2.1-2.8-3.6-4.5-4.5-5.4c0.2,1.8,0.2,5,0.2,7.6C67.1,140.9,65.9,142,64.5,142
				C64.5,142,64.5,142,64.5,142z"/>
			<path d="M128.3,6.5c4.5,0,2.8,2.2,2.5,3.2c-0.6,2,2.2,2,10.3,3.8c8.1,1.7,12,3.6,12.7,6.9c-0.2,0-0.3,0-0.4,0
				c-6.1,0-9.6,7.7,0.2,8.9c10,1.3,3.6,4.4,3.6,4.4s-9.8,0.9-10.7,1.7c-0.9,0.9-3.3,2.6,9.2,2.7c12.5,0.1,6.4,3.7,6.4,3.7
				s-10.7,1.4-2.1,2.7c8.5,1.4,4.9,4.6,2.8,4.9c-2,0.3-8,0.4-11.6,0.8c-3.7,0.4-16.2,1.9-27.5,5c-11.3,3.1-17.3,7-19.1,8.2
				c-1.8,1.2-0.2,3.5-0.2,3.5c-3.7,5-11.8,9.6-13.6,10.4c-1.7,0.8-1,0-1.4,6.2c-0.2,3-0.6,3.5-1.2,3.5c-0.3,0-0.6-0.1-0.9-0.1
				c-0.4,0-0.8,0.2-1.2,0.9c-0.8,1.4-0.4,3.8,0.1,5.5l-0.8-2.1c-3-3.3-5.8-5-8-5c-0.9,0-1.7,0.3-2.4,1c-2.1,2.1-6.3,5.7-7.5,16.1
				c-1.2,10.4,5.1,13.1,5.1,13.8c0,0.7-0.1,19.8-0.7,19.8c0,0,0,0,0,0c-3.2-4.3-5.4-6.4-6-6.4c-0.2,0-0.2,0.2,0,0.5
				c0.3,1.1,0.3,5.9,0.3,8.6c0,1-0.8,1.8-1.8,1.8c0,0,0,0,0,0c-2.6,0-7.5-0.1-9.2-0.6c-2.4-0.7-5.2-2.6-7.8-5
				c-2.5-2.4-4.7-8.8-6.8-21.2c-2.1-12.3-7.7-27.5-8.6-36.1s-1.1-25.4,3.3-29c4.4-3.6,1-3.6,1-3.6c-5.7-0.9-3.7-2.5-2.5-4.4
				c0.7-1.1,3.4-1.3,5.4-1.3c1.3,0,2.2,0.1,2.2,0.1s0.2-1.2,0.1-4.4c-0.1-3.2-1-6.5,1.6-8.3c0.3-0.2,0.5-0.3,0.7-0.3
				c2,0,2.7,6.3,2.8,8.5c0.9-0.8,7.7-5.4,11.6-8.4c3.9-3,12.3-5.6,25.2-10.7c12.9-5,28.4-7.6,39.4-9.5C125.3,6.7,127,6.5,128.3,6.5
				 M86.2,93.3l0.8,2.2C87,95.5,86.5,94.6,86.2,93.3 M128.3,5c-1.4,0-3.3,0.2-5.7,0.6L120.3,6c-10.6,1.9-25.2,4.4-37.4,9.2
				c-3.4,1.3-6.5,2.5-9.2,3.5c-8,3-13.3,5-16.4,7.4c-2.1,1.7-5.2,3.8-7.6,5.6c-0.7,0.5-1.3,0.9-1.8,1.3c-0.4-3.1-1.4-7.2-4-7.2
				c-0.5,0-1.1,0.2-1.6,0.5c-2.8,1.9-2.5,5-2.3,7.8c0,0.6,0.1,1.2,0.1,1.8c0,1.2,0,2.1,0,2.7c-0.3,0-0.5,0-0.8,0
				c-3.7,0-5.8,0.7-6.7,2c-0.1,0.2-0.3,0.4-0.4,0.6c-0.7,0.9-1.5,2.2-0.9,3.6c0.5,1.2,1.8,1.9,4.4,2.3c-0.3,0.3-0.6,0.6-1.1,1
				c-5.4,4.5-4.6,23.4-3.8,30.3c0.5,4.6,2.2,10.8,4.1,17.4c1.7,6.3,3.6,12.9,4.6,18.8c2.2,12.6,4.4,19.2,7.2,22
				c2.9,2.8,5.9,4.7,8.4,5.4c1.8,0.5,6.2,0.6,9.6,0.7c1.8,0,3.3-1.5,3.3-3.3c0-2.5,0-4.3-0.1-5.6c0.8,0.9,1.8,2.2,3.1,3.8
				c0.1,0.1,0.2,0.3,0.4,0.3c0.2,0.2,0.6,0.3,0.8,0.3c1.6,0,1.7-1.6,1.8-4.4c0.1-1.6,0.1-3.9,0.2-6.7c0.1-4.8,0.1-9.8,0.1-10.2
				c0-0.8-0.5-1.3-1.1-1.8c-1.5-1.3-4.9-4.2-4-11.8c1-9.3,4.6-12.8,6.7-14.9l0.4-0.4c0.4-0.4,0.8-0.5,1.3-0.5c1.7,0,4.2,1.6,6.7,4.3
				l0.6,1.8c0.4,1.3,0.8,2.3,0.9,2.4c0.2,0.6,0.8,0.9,1.4,0.9c0.2,0,0.4,0,0.6-0.1c0.7-0.3,1.1-1.1,0.9-1.9l-0.8-2.2
				c-0.6-2-0.6-3.6-0.2-4.3c0,0,0-0.1,0.1-0.1c0,0,0,0,0,0c0.2,0,0.4,0.1,0.7,0.1c2.3,0,2.5-3,2.7-4.9c0.1-1.9,0.1-3.2,0.1-4.1
				c0-0.3,0-0.5,0-0.7c0.1,0,0.2-0.1,0.3-0.1c2-0.9,10.3-5.7,14.2-10.9c0.4-0.5,0.4-1.2,0-1.8c-0.2-0.3-0.5-0.9-0.4-1.2
				c0,0,0-0.1,0.2-0.2l0.1-0.1c1.9-1.2,7.8-4.9,18.6-7.9c12.2-3.4,25.7-4.8,27.2-5c1.8-0.2,4.3-0.3,6.5-0.4c2.2-0.1,4.1-0.2,5.2-0.4
				c1.6-0.2,3.8-1.6,3.9-3.6c0-2.4-2.9-3.4-5-3.9c0.1,0,0.3,0,0.4-0.1c0.2,0,0.4-0.1,0.6-0.2c1.3-0.8,2.6-2.1,2.2-3.7
				c-0.5-2-3.2-2.8-9.3-2.8c-3.6,0-5.7-0.2-7-0.4c2-0.4,5.5-0.8,8.6-1.1c0.2,0,0.4-0.1,0.5-0.1c0.8-0.4,3.2-1.7,2.8-3.8
				c-0.3-1.8-2.4-2.8-6.9-3.4c-3-0.4-4.9-1.5-4.8-2.9c0.1-1.4,1.9-3,4.4-3c0.1,0,0.2,0,0.4,0c0,0,0.1,0,0.1,0c0.4,0,0.8-0.2,1.1-0.5
				c0.3-0.4,0.4-0.8,0.3-1.3c-0.9-4.4-6-6.3-13.9-8.1c-1.6-0.3-3-0.6-4.1-0.9c-2.2-0.4-4.2-0.8-5-1.2c0,0,0-0.1,0.1-0.1
				c0.3-0.7,0.9-2.1,0.1-3.3C131.5,5.2,129.6,5,128.3,5L128.3,5z"/>
		</g>
		<path class="st6" d="M83.5,16.6c12.9-5,28.4-7.6,39.4-9.5s8.3,1.4,7.9,2.6c-0.6,2,2.2,2,10.3,3.8s12,3.6,12.7,6.9
			c-6.4-0.4-10.3,7.7-0.3,8.9c10,1.3,3.6,4.4,3.6,4.4s-9.8,0.9-10.7,1.7c-0.9,0.9-3.3,2.6,9.2,2.7c12.5,0.1,6.4,3.7,6.4,3.7
			s-10.7,1.4-2.1,2.7c8.5,1.4,4.9,4.6,2.8,4.9c-2,0.3-8,0.4-11.6,0.8c-3.7,0.4-16.2,1.9-27.5,5s-17.3,7-19.1,8.2
			c0,0-15.2,2.9-18.9,6.4c-3.8,3.4-10.5,6.7-19,4.8s-13.5-7.7-13.5-10.3c0-2.6-7.5-9.9-4.1-14.9s9.9-9.6,16.3-14.4
			s16.8-12,17.6-13.9C83.6,19.2,83.5,16.6,83.5,16.6z"/>
		<path class="st5" d="M147.5,23.3c0,0-1.4,5,6.7,6.3c-5.1,0.7-22.8,2.4-24.5,2.4s-6.7-1,1.5-4.3C139.5,24.5,147.5,23.3,147.5,23.3z
			"/>
		<path class="st5" d="M156.5,43.1c0,0-14.6-0.9-24.2-0.2s-17.1,3.6-1,3.9c16.1,0.3,28.5-0.6,30.1-0.8c0.5-0.1,1.2-0.8-1.6-1.3
			C157.8,44.3,156.1,44.2,156.5,43.1z"/>
		<path class="st7" d="M171.4,129.1l-10.3-5.4c-1-0.5-2.1-0.1-2.6,0.9l-3.2,7.4c-0.5,1.2,0.3,2.6,1.7,2.6l12.7,0.3L171.4,129.1z"/>
		<g>
			<path class="st8" d="M185.8,142.2c-0.2,0-0.4,0-0.5-0.1l-17-4c-0.6-0.1-1.2-0.5-1.5-1.1c-0.3-0.5-0.4-1.2-0.2-1.8l10.1-32.4
				c0.3-1,1.2-1.6,2.2-1.6c0.2,0,0.3,0,0.5,0.1l14.3,3.1c0.6,0.1,1.1,0.5,1.4,1c0.3,0.5,0.4,1.1,0.3,1.7l-7.3,33.3
				C187.8,141.4,186.8,142.2,185.8,142.2L185.8,142.2z"/>
			<path d="M178.8,102c0.1,0,0.2,0,0.3,0l14.3,3.1c0.8,0.2,1.4,1,1.2,1.8l-7.3,33.3c-0.2,0.7-0.8,1.2-1.5,1.2c-0.1,0-0.2,0-0.4,0
				l-17-4c-0.9-0.2-1.4-1.1-1.1-2l10.1-32.4C177.5,102.4,178.1,102,178.8,102 M178.8,100.5c-1.3,0-2.5,0.9-2.9,2.1L165.8,135
				c-0.2,0.8-0.2,1.7,0.3,2.4c0.4,0.7,1.1,1.3,1.9,1.5l17,4c0.2,0.1,0.5,0.1,0.7,0.1c1.4,0,2.7-1,3-2.4l7.3-33.3
				c0.2-0.8,0-1.6-0.4-2.3c-0.4-0.7-1.1-1.2-1.9-1.3l-14.3-3.1C179.2,100.5,179,100.5,178.8,100.5L178.8,100.5z"/>
		</g>
		<path class="st9" d="M184.6,103.5l-6.5-1.3c-0.3,0.2-0.6,0.5-0.8,0.9l-10.1,32.4c-0.3,0.9,0.2,1.8,1.1,2l8.2,1.9
			c0-0.1,0-0.1,0.1-0.2l9.1-33.9C186,104.5,185.5,103.6,184.6,103.5z"/>
		<path class="st7" d="M178.9,94l16.5,5.3c0.9,0.3,1.4,1.1,1.2,2l-1.1,5.2c-0.2,1-1.2,1.6-2.2,1.3l-17-4.8c-1.1-0.3-1.6-1.5-1.1-2.5
			l1.6-5.7C177.2,94.1,178.1,93.7,178.9,94z"/>
		<g>
			<path class="st10" d="M208,187.1c-1.7,0-19.4-6.1-21.4-6.8c-0.2-0.1-0.3-0.3-0.3-0.5c0.3-5.5,1-20.1,0.4-22.2
				c-0.1-0.2-0.1-0.5-0.2-0.7c-0.6-2.4-1.3-5.1-7.8-7.3c-5.8-1.9-10.1-5-10.4-7.5c-0.1-0.7,0.1-1.6,1.4-2.4c0.9-0.5,1.9-0.8,3.1-0.8
				c1.7,0,3.5,0.5,5.5,0.9c2.2,0.5,4.4,1.1,6.8,1.2c0.5,0,1,0,1.5,0.1c1,0.1,2.1,0.1,3.1,0.1c4.8,0,9.4-1.1,10.6-9.3l0.1-0.9
				c1.4-10.3,2.2-15.9,0.7-18.1c-0.7-1-3.2-3.7-5.8-6.6c-3.8-4.2-7.7-8.6-8.5-10c-0.7-1.2-1.8-3.9-0.9-5.5c0.3-0.5,0.9-1.1,2.1-1.1
				c0.8,0,1.8,0.2,3,0.7c5.2,2,9.3,6.2,12.4,9.3c0.8,0.8,1.5,1.5,2.2,2.1c0.2,0.2,0.4,0.4,0.6,0.5c3.4,3.1,9.1,8.2,8.9,27.7
				c-0.2,19.1-1.5,33.1-3.7,41.6c-1.4,5.4-2.1,10.3-2.5,12.9c-0.2,1.4-0.3,1.8-0.3,2C208.5,186.9,208.4,187.1,208,187.1z"/>
			<path d="M188,90.4c0.7,0,1.6,0.2,2.8,0.6c6.5,2.5,11.3,8.5,14.4,11.4s9.6,7.3,9.3,27.8s-1.6,33.7-3.7,41.4
				c-2,7.7-2.6,14.3-2.8,14.9c0,0,0,0-0.1,0c-1.6,0-21.2-6.7-21.2-6.7s1.1-19.7,0.4-22.4c-0.8-2.7-0.9-5.9-8.3-8.3
				c-7.4-2.5-12.4-6.8-8.9-8.9c0.8-0.5,1.8-0.7,2.9-0.7c3.3,0,7.6,1.9,12.3,2.1c1.5,0.1,3.1,0.2,4.6,0.2c5,0,9.9-1.2,11.1-9.7
				c1.6-11.2,2.4-17,0.7-19.3s-12.9-14.3-14.2-16.6C186.2,94.4,184.9,90.4,188,90.4 M188,89.4C188,89.4,188,89.4,188,89.4
				c-1.5,0-2.2,0.7-2.6,1.3c-1,1.8,0.1,4.6,0.9,6c0.8,1.3,4,5,8.5,10c2.6,2.9,5,5.7,5.7,6.6c1.4,1.9,0.6,7.9-0.8,17.7l-0.1,0.9
				c-1,7.4-4.8,8.9-10.1,8.9c-1,0-2.1-0.1-3.1-0.1c-0.5,0-1-0.1-1.5-0.1c-2.3-0.1-4.6-0.6-6.7-1.2c-2-0.5-3.9-0.9-5.6-0.9
				c-1.3,0-2.4,0.3-3.4,0.8c-1.6,0.9-1.7,2.2-1.6,2.9c0.3,3.1,5.6,6.2,10.7,7.9c6.2,2.1,6.9,4.5,7.5,6.9c0.1,0.2,0.1,0.5,0.2,0.7
				c0.5,1.8,0,14.5-0.4,22c0,0.4,0.2,0.9,0.7,1c4.6,1.6,19.9,6.8,21.5,6.8c0.7,0,1-0.5,1-0.6c0.1-0.3,0.2-0.7,0.4-2.1
				c0.4-2.6,1-7.4,2.5-12.9c2.2-8.5,3.5-22.5,3.7-41.7c0.2-18.2-4.6-24-9.1-28c-0.2-0.2-0.4-0.4-0.6-0.5c-0.6-0.6-1.4-1.3-2.1-2.1
				c-3.1-3.1-7.3-7.4-12.6-9.4C189.9,89.7,188.9,89.4,188,89.4L188,89.4z"/>
		</g>
		<path class="st3" d="M169.9,140.2c-3.5,2.1,1.5,6.5,8.9,8.9c7.4,2.5,7.6,5.7,8.3,8.3c0.8,2.6-0.4,22.4-0.4,22.4s6.4,2.2,12.2,4.1
			c0.4-2.7,1.1-7.3,2.4-12.3c2-7.7,6.1-20.8,6.3-41.4c0.2-20.5-6.2-25-9.3-27.8c-2.8-2.6-6.9-7.6-12.3-10.4
			c-0.2,1.3,0.5,3.1,1.2,4.2c1.3,2.3,12.5,14.2,14.2,16.6c1.7,2.3,0.9,8.1-0.7,19.3c-1.5,10.9-9.2,9.9-15.2,9.6
			c-3.3-0.1-5.3-0.9-7.6-1.3C177.9,140.3,171.7,138.6,169.9,140.2z"/>
		<g>
			<path class="st11" d="M64.9,160.7c0,0,16,6.4,20.3,8.2c10.8,4.6,18.7,7.5,21.4,8.9c2.8,1.4,9.9,10.9,13.4,21.2
				c4.1,12,9.6,39.1,9.6,39.1l13.6,90.5H5.5c0,0,19.2-118.9,36.5-143.8S64.9,160.7,64.9,160.7z"/>
			<path d="M65.1,159.7l23.4,9.9c3.9,1.7,7.8,3.1,11.8,4.6c2,0.8,3.9,1.5,5.9,2.3l0.7,0.3c0.3,0.1,0.6,0.3,0.8,0.5
				c0.5,0.3,0.9,0.7,1.3,1.1c0.8,0.8,1.5,1.6,2.2,2.4c2.7,3.3,5.1,6.9,6.9,10.8c0.9,1.9,1.7,3.9,2.5,5.9c0.7,2,1.3,4.1,1.9,6.1
				c1.1,4.1,2.2,8.2,3.1,12.3l2.9,12.3l1.4,6.2l0.7,3.1c0.2,1.1,0.3,2.1,0.5,3.1l1.9,12.5l3.8,25l7.5,50l0,0c0.1,0.6-0.3,1.2-1,1.3
				c-0.1,0-0.1,0-0.2,0l-137.9,0c-0.6,0-1.1-0.5-1.1-1.1c0-0.1,0-0.1,0-0.2l0,0c2.5-15,5.2-30,8.2-44.9c3-14.9,6.1-29.8,9.8-44.6
				c1.8-7.4,3.7-14.8,5.9-22.1c2.2-7.3,4.5-14.6,7.4-21.7c1.5-3.5,3.1-7.1,5.3-10.3c1.1-1.6,2.2-3.1,3.3-4.7
				c1.1-1.5,2.3-3.1,3.5-4.6c1.2-1.5,2.4-3,3.6-4.5c0.6-0.7,1.3-1.4,2-2.1l1.9-2.1c0.6-0.7,1.3-1.4,2-2.1c0.7-0.7,1.4-1.3,2.2-2
				l1.2-0.9c0.4-0.3,0.8-0.6,1.3-0.8c0.5-0.3,0.9-0.5,1.4-0.7c0.2-0.1,0.5-0.2,0.8-0.3c0.1,0,0.3-0.1,0.5-0.1c0.1,0,0.2,0,0.3,0
				l0.1,0c0,0,0.1,0,0.1,0C65,159.7,65.1,159.7,65.1,159.7z M64.6,161.7c0,0,0.1,0,0.1,0c0.1,0,0.1,0,0.1,0l0,0
				C64.8,161.7,64.7,161.7,64.6,161.7c0,0.1-0.1,0.1-0.2,0.1c-0.2,0.1-0.4,0.1-0.5,0.2c-0.4,0.2-0.8,0.4-1.1,0.6l-1.1,0.8l-1.1,0.8
				c-1.4,1.2-2.8,2.4-4.1,3.8c-1.4,1.3-2.5,2.8-3.7,4.3c-1.2,1.4-2.4,2.9-3.6,4.4c-1.2,1.5-2.3,3-3.4,4.5c-1.1,1.5-2.2,3.1-3.3,4.6
				c-2,3.1-3.6,6.5-5.1,10c-2.9,7-5.2,14.2-7.3,21.5c-2.1,7.3-4,14.6-5.8,22c-3.6,14.8-6.7,29.6-9.7,44.5
				c-2.9,14.9-5.6,29.9-8.1,44.9l0,0l-1.1-1.3l137.9,0l-1.1,1.3l0,0l-7.6-50l-3.7-25l-1.9-12.5l-0.5-3.1l-0.6-3.1l-1.2-6.2
				c-3.6-16.3-6.6-33.5-16.9-46.7c-0.6-0.8-1.3-1.6-2-2.3c-0.3-0.4-0.7-0.7-1.1-1c-0.2-0.1-0.3-0.2-0.5-0.3l-0.7-0.3
				c-1.9-0.9-3.8-1.7-5.8-2.5c-3.9-1.6-7.7-3.3-11.7-4.9c-3.9-1.6-7.8-3.1-11.8-4.6L64.6,161.7z"/>
		</g>
		<path class="st12" d="M141.6,326.8c0,0-5.5-49-11.2-80.5c-2.6-14.4-6.2-21.6-7.5-25c-4.4-10.8-12.5-31.2-13.4-32
			c-0.8-0.8-17.4-5.7-17.4-5.7s8.7,42.7,9.8,54.8s7.9,79.7,6.3,88.7C117.8,327,141.6,326.8,141.6,326.8z"/>
		<path class="st13" d="M181.8,174c0,0-1.7,8.9-3.2,9.7c1.3,2.1,9.1,7,9.1,7s19.3,5.3,20.5,4.9c1.1-0.4,5.1-10,5.1-10
			S194.1,183.3,181.8,174z"/>
		<g>
			<path class="st11" d="M37.6,237.5c-0.7,8.2,20.3,24,24.5,27.9s30,21.8,45.2,32.5c15.2,10.7,31,11.1,33.6,11.5
				c2.6,0.4,11.3,5.5,16.4,4.5s9.7-8.5,11.9-12.3c2.2-3.7,11.8-21.8,18.2-34.1c6.4-12.3,21.2-45.4,22.6-49.8
				c1.3-4.4-1-19.7-1.4-22.3c-0.9,0.2-7.6-1.5-16.9-3.9c-9.3-2.4-13.2-8.8-14.1-7c-0.9,1.8-5,7.3-8.8,10.7
				c-3.7,3.4-5.7,11.3-6.2,17.1s-8.6,21.9-12.4,32.5c-3.7,10.6-6.4,8.5-9.9,7.6s-10.9-7.2-10.9-7.2S85,215.3,82.2,210.5"/>
			<path d="M37.8,237.5c0,1.4,0.5,2.8,1.2,4c0.7,1.2,1.5,2.4,2.4,3.5c1.8,2.2,3.8,4.3,5.9,6.3c4.2,4,8.7,7.7,13.2,11.4
				c1.1,0.9,2.3,2,3.3,2.8c1.1,0.9,2.3,1.8,3.4,2.7c2.3,1.7,4.7,3.5,7,5.2c4.7,3.4,9.5,6.8,14.3,10.1l14.3,10.1
				c2.4,1.7,4.8,3.4,7.2,4.9c1.2,0.8,2.5,1.5,3.7,2.2c1.3,0.6,2.5,1.3,3.9,1.9c5.2,2.4,10.8,4,16.5,4.9c1.4,0.2,2.8,0.4,4.3,0.6
				l2.2,0.2c0.4,0,0.8,0.1,1.2,0.2c0.4,0.1,0.8,0.2,1.1,0.4c2.8,1.1,5.4,2.3,8.1,3.1c2.7,0.8,5.5,1.4,7.7,0.2c2.3-1.2,4.3-3.4,6-5.6
				c0.8-1.1,1.6-2.3,2.4-3.5c0.4-0.6,0.8-1.2,1.1-1.9c0.4-0.6,0.7-1.3,1-1.9l4.1-7.7l8.2-15.4c2.7-5.2,5.6-10.2,8-15.5
				c5-10.5,9.9-21.1,14.6-31.8c1.2-2.7,2.3-5.3,3.4-8c0.5-1.3,1.1-2.7,1.4-3.9c0.2-1.2,0.3-2.7,0.2-4.1c-0.2-5.7-0.9-11.5-1.8-17.2
				l1.4,0.9c-0.2,0-0.4,0.1-0.5,0.1l-0.3,0c-0.2,0-0.4,0-0.6-0.1c-0.4-0.1-0.7-0.1-1-0.2c-0.7-0.1-1.3-0.3-2-0.4l-3.9-1l-7.8-2
				c-1.3-0.3-2.7-0.7-4-1.2c-1.3-0.5-2.6-1.1-3.8-1.7c-1.2-0.7-2.4-1.4-3.5-2.2c-1.1-0.8-2.2-1.7-3.2-2.3c-0.1-0.1-0.2-0.1-0.2-0.1
				c-0.1,0,0,0.1,0.3-0.1c0.1-0.1,0.2-0.2,0.3-0.2c0,0,0,0,0-0.1l-0.1,0.1c-0.1,0.2-0.2,0.3-0.3,0.5c-0.4,0.6-0.8,1.2-1.2,1.8
				c-0.8,1.1-1.6,2.2-2.5,3.3c-0.9,1.1-1.7,2.1-2.7,3.1c-0.5,0.5-0.9,1-1.4,1.5c-0.2,0.2-0.5,0.5-0.8,0.7c-0.3,0.2-0.4,0.4-0.6,0.6
				c-1.6,1.8-2.7,4.2-3.5,6.6c-0.8,2.5-1.4,5-1.7,7.6c-0.1,0.7-0.1,1.2-0.2,2c-0.1,0.7-0.3,1.4-0.4,2.1c-0.4,1.4-0.8,2.6-1.3,3.9
				c-0.9,2.6-1.9,5-3,7.5c-2.1,5-4.3,9.9-6.2,14.8c-0.5,1.2-1,2.5-1.4,3.7c-0.5,1.3-0.9,2.6-1.5,3.8c-0.6,1.3-1.2,2.5-2.3,3.7
				c-0.5,0.6-1.2,1.1-2,1.5c-0.8,0.4-1.8,0.4-2.6,0.3c-0.8-0.1-1.5-0.4-2.1-0.5l-0.9-0.3c-0.4-0.1-0.8-0.2-1.1-0.4
				c-1.3-0.6-2.5-1.3-3.7-2.1c-2.3-1.5-4.4-3.2-6.5-4.9l0.1,0.1c-8.1-5.5-16.2-11.1-24.2-16.7c-4-2.8-8-5.7-11.9-8.6
				c-2-1.5-3.9-3-5.9-4.5c-1-0.8-1.9-1.5-2.9-2.4c-0.5-0.4-0.9-0.8-1.4-1.3c-0.5-0.5-0.9-0.9-1.4-1.6c-0.3-0.5-0.2-1.1,0.3-1.4
				c0.4-0.3,1.1-0.2,1.4,0.2L83,210c0.2,0.3,0.6,0.8,1.1,1.2c0.4,0.4,0.9,0.8,1.3,1.2c0.9,0.8,1.9,1.5,2.8,2.3
				c1.9,1.5,3.9,3,5.8,4.4c3.9,2.9,7.9,5.7,11.9,8.6c8,5.6,16.1,11.2,24.2,16.6l0.1,0.1l0,0c2,1.7,4.2,3.3,6.3,4.7
				c1.1,0.7,2.2,1.4,3.3,1.9c0.3,0.1,0.5,0.2,0.8,0.3l1,0.3c0.6,0.2,1.2,0.4,1.8,0.5c1.9,0.5,3.3-2,4.4-4.2c0.5-1.2,1-2.4,1.4-3.6
				c0.5-1.3,0.9-2.5,1.4-3.8c2-5,4.1-9.9,6.2-14.9c1-2.5,2-4.9,2.9-7.4c0.4-1.2,0.9-2.5,1.2-3.7c0.2-0.6,0.3-1.2,0.4-1.8
				c0.1-0.6,0.1-1.3,0.2-2c0.4-2.7,0.9-5.4,1.8-8c0.9-2.6,2-5.2,4-7.5c0.3-0.3,0.5-0.6,0.8-0.8c0.2-0.2,0.5-0.4,0.7-0.7
				c0.5-0.5,0.9-0.9,1.4-1.4c0.9-1,1.8-2,2.6-3c0.8-1,1.6-2.1,2.4-3.1c0.4-0.5,0.7-1.1,1.1-1.6c0.1-0.1,0.2-0.3,0.2-0.4l0.1-0.1
				c0.1-0.1,0.1-0.2,0.2-0.3c0.1-0.2,0.4-0.4,0.7-0.5c0.6-0.2,1.1-0.1,1.3,0c0.3,0.1,0.5,0.2,0.7,0.3c0.7,0.4,1.2,0.8,1.8,1.2
				l1.6,1.2c1.1,0.8,2.1,1.5,3.3,2.1c1.1,0.6,2.3,1.2,3.5,1.6c1.2,0.5,2.4,0.8,3.7,1.1l7.8,2l3.9,0.9c0.6,0.1,1.3,0.3,1.9,0.4
				c0.3,0.1,0.6,0.1,0.9,0.2c0.1,0,0.3,0,0.4,0.1l0.2,0c0,0,0,0,0,0l1.4,0.9c0.9,5.8,1.7,11.6,1.8,17.6c0,1.5,0,3-0.3,4.6
				c-0.4,1.6-1,2.9-1.5,4.3c-1.1,2.7-2.3,5.4-3.4,8.1c-4.7,10.7-9.5,21.3-14.6,31.9c-2.5,5.3-5.4,10.4-8.1,15.6l-8.3,15.5l-4.1,7.7
				c-0.3,0.6-0.7,1.3-1,1.9c-0.4,0.6-0.8,1.3-1.1,1.9c-0.8,1.3-1.6,2.5-2.5,3.7c-1.8,2.4-3.8,4.7-6.7,6.2c-0.4,0.2-0.8,0.3-1.1,0.5
				c-0.4,0.1-0.8,0.2-1.2,0.3c-0.8,0.1-1.7,0.1-2.4,0.1c-1.6-0.1-3.1-0.5-4.5-1c-2.9-0.9-5.6-2.1-8.2-3.2c-0.3-0.1-0.6-0.2-1-0.3
				c-0.3-0.1-0.6-0.1-0.9-0.2l-2.2-0.2c-1.5-0.2-2.9-0.3-4.4-0.6c-5.8-1-11.6-2.6-17-5.1c-1.4-0.6-2.7-1.3-4-2
				c-1.3-0.7-2.6-1.5-3.8-2.3c-2.5-1.6-4.8-3.3-7.2-5l-14.3-10.1c-4.8-3.4-9.5-6.7-14.3-10.2c-2.4-1.7-4.7-3.4-7.1-5.2
				c-1.2-0.9-2.3-1.8-3.5-2.7l-3.3-2.9c-4.4-3.8-8.9-7.6-13-11.8c-2-2.1-4-4.3-5.7-6.7c-0.8-1.2-1.6-2.5-2.3-3.8
				c-0.6-1.4-1.1-2.9-0.9-4.4c0-0.1,0.1-0.2,0.2-0.2C37.7,237.3,37.8,237.4,37.8,237.5L37.8,237.5z"/>
		</g>
		<path class="st13" d="M138.8,252c0,0,0.4,26.1,1.5,29.2"/>
		<path class="st13" d="M143.6,253.2c0,0,5.5,13.6,4.4,18.9"/>
		<g>
			<path class="st11" d="M35.8,256.2c0,0,2.8,4.2,20.7,5.1"/>
			<path d="M36.1,256c0.5,0.5,1.3,1,2.1,1.4c0.8,0.4,1.6,0.7,2.5,0.9c1.7,0.5,3.4,0.9,5.2,1.2c1.8,0.3,3.5,0.5,5.3,0.6
				c1.8,0.1,3.6,0.2,5.4,0.3l0,0c0.6,0,1,0.5,1,1c0,0.6-0.5,1-1,1c0,0,0,0-0.1,0c-1.8-0.2-3.6-0.3-5.4-0.6c-1.8-0.2-3.6-0.6-5.4-0.9
				c-1.8-0.4-3.5-0.9-5.3-1.5c-0.9-0.3-1.7-0.7-2.5-1.1c-0.8-0.5-1.6-0.9-2.3-1.7c-0.1-0.1-0.1-0.3,0-0.5
				C35.7,255.8,35.9,255.8,36.1,256L36.1,256z"/>
		</g>
		<g>
			<path class="st11" d="M44.1,233.1c0,0,0.6,18,12.7,27.9"/>
			<path d="M44.2,233.1c0.2,2.6,0.7,5.2,1.4,7.7c0.7,2.5,1.5,5,2.6,7.3c1,2.4,2.4,4.6,3.9,6.6c1.5,2.1,3.4,3.8,5.3,5.4l0.1,0
				c0.4,0.4,0.5,1,0.1,1.4c-0.4,0.4-1,0.5-1.4,0.1c0,0,0,0,0,0c-2-1.8-3.9-3.8-5.3-6.1c-1.5-2.2-2.7-4.6-3.7-7.1
				c-1-2.5-1.7-5-2.2-7.6c-0.5-2.6-0.9-5.2-1-7.8c0-0.1,0.1-0.2,0.2-0.2C44.2,232.9,44.2,233,44.2,233.1L44.2,233.1z"/>
		</g>
		<path class="st12" d="M186.2,190.9c0,0-7.2,8.1-8.8,13.6c-1.5,5.5-6.4,15.5-7.8,21.8s-6.6,15.2-9.7,18.9c-3,3.8-9.3,12.3-8.7,16.3
			c0.6,4-0.5,7.7-0.8,8.8s-3.7,5.5-6.5,4.6c-0.1,4-0.6,8.3-3.3,8.6c-2.8,0.3-6.5-7.8-12.3-12.6c-5.8-4.9-15.7-14.3-19.6-18
			c-3.9-3.7-16.4-11.8-21.6-14.6c-5.3-2.8-16.8-12.8-19.6-19.3s-3.3-12.9,1-13.6c4.3-0.7,6.5-2.8,17.6,3.7s20.1,14.7,22.1,16.6
			s16.8,14.3,20,16.8c3.2,2.5,8.5,8.3,10.5,9.2c2.1,0.8,5,2.6,6.8,1.7c1.8-1,5.7-10.8,7.4-15.1s6.5-13.7,8.5-21.6s3.3-14.6,5.1-17.6
			s8.7-13.4,10.9-13.7C179.6,185.1,186.2,190.9,186.2,190.9z"/>
		<g>
			<path d="M62.8,264.7c1.8,1.6,3.9,3.1,5.9,4.6l6.1,4.4l12.3,8.7l12.4,8.7l6.2,4.3c1,0.7,2.1,1.5,3.1,2.1c1,0.7,2.1,1.4,3.1,2
				c4.3,2.5,8.8,4.5,13.6,5.9c4.8,1.5,9.6,2.2,14.7,2.7c0.3,0,0.7,0.1,1,0.1l0.6,0.1l0.5,0.2c0.7,0.2,1.2,0.5,1.8,0.7l3.5,1.4
				c2.3,0.9,4.6,1.7,7,2c1.2,0.2,2.3,0.1,3.2-0.2c1-0.3,2-1,2.9-1.7c1.8-1.5,3.4-3.4,4.8-5.4c1.4-2,2.7-4.1,3.9-6.4l3.6-6.7
				l7.1-13.3c2.4-4.4,4.8-8.9,7.1-13.3c2.3-4.5,4.4-9,6.6-13.6c4.3-9.1,8.4-18.3,12.4-27.6c1-2.3,2-4.7,2.8-6.9
				c0.3-1,0.4-2.2,0.4-3.4c0-1.2,0-2.5-0.1-3.7c-0.3-5-0.9-10-1.7-14.9l1.3,0.9c-0.2,0-0.4,0.1-0.5,0l-0.3,0c-0.2,0-0.4,0-0.6-0.1
				c-0.4-0.1-0.7-0.1-1-0.2c-0.7-0.1-1.3-0.3-2-0.4l-3.9-1l-7.8-2c-1.3-0.3-2.7-0.7-4-1.2c-1.3-0.5-2.6-1.1-3.8-1.7
				c-1.2-0.7-2.4-1.4-3.5-2.2c-1.1-0.8-2.2-1.7-3.2-2.3c-0.1-0.1-0.2-0.1-0.3-0.1c-0.1,0,0,0,0.3-0.1c0.1-0.1,0.2-0.1,0.2-0.2
				c0,0,0,0,0-0.1l-0.1,0.1c-0.1,0.2-0.2,0.3-0.3,0.5c-0.4,0.6-0.8,1.2-1.2,1.7c-0.8,1.1-1.6,2.2-2.5,3.3c-0.9,1.1-1.7,2.1-2.7,3.1
				c-0.5,0.5-0.9,1-1.4,1.5c-0.2,0.2-0.5,0.5-0.8,0.7c-0.3,0.2-0.4,0.4-0.7,0.7c-1.6,1.8-2.7,4.2-3.5,6.7c-0.8,2.5-1.4,5-1.7,7.6
				c-0.1,0.7-0.1,1.3-0.2,2c-0.1,0.7-0.3,1.4-0.4,2.1c-0.4,1.3-0.8,2.6-1.3,3.9c-0.9,2.6-2,5-3,7.5c-2.1,5-4.2,9.9-6.2,14.8
				c-0.5,1.2-1,2.5-1.4,3.7c-0.5,1.3-0.9,2.6-1.5,3.8c-0.6,1.3-1.2,2.5-2.2,3.7c-0.5,0.6-1.1,1.1-1.9,1.5c-0.8,0.4-1.7,0.4-2.5,0.3
				c-0.8-0.1-1.5-0.3-2.1-0.5l-0.9-0.3c-0.4-0.1-0.7-0.2-1.1-0.4c-1.3-0.6-2.5-1.3-3.6-2.1c-2.3-1.5-4.4-3.2-6.5-4.9l0.1,0.1
				c-4.1-2.7-8.1-5.5-12.1-8.3c-4-2.8-8-5.6-12-8.5c-4-2.9-7.9-5.8-11.8-8.8c-1.9-1.5-3.9-3-5.7-4.6c-0.9-0.8-1.9-1.6-2.8-2.4
				c-0.9-0.8-1.8-1.7-2.5-2.7c-0.1-0.1,0-0.2,0.1-0.3c0.1-0.1,0.2,0,0.3,0l0,0c0.7,0.9,1.7,1.7,2.6,2.5c0.9,0.8,1.9,1.5,2.9,2.3
				c2,1.5,3.9,2.9,5.9,4.3c4,2.9,8,5.6,12,8.4l12.1,8.3l12.2,8.2l0.1,0.1l0,0c2,1.7,4.2,3.3,6.3,4.8c1.1,0.7,2.2,1.4,3.3,1.9
				c0.3,0.1,0.5,0.2,0.8,0.3l1,0.3c0.6,0.2,1.2,0.4,1.8,0.5c2,0.5,3.5-2.1,4.5-4.3c0.5-1.2,1-2.4,1.4-3.7c0.5-1.3,0.9-2.5,1.4-3.8
				c2-5,4.1-9.9,6.2-14.9c1-2.5,2-4.9,2.9-7.4c0.4-1.2,0.9-2.5,1.2-3.7c0.2-0.6,0.3-1.2,0.4-1.8c0.1-0.6,0.1-1.3,0.2-2
				c0.4-2.7,0.9-5.4,1.8-8c0.9-2.6,2-5.2,4-7.4c0.3-0.3,0.5-0.6,0.8-0.8c0.2-0.2,0.5-0.4,0.7-0.7c0.5-0.5,0.9-0.9,1.4-1.4
				c0.9-1,1.8-2,2.6-3c0.8-1,1.6-2.1,2.4-3.1c0.4-0.5,0.7-1.1,1.1-1.6c0.1-0.1,0.2-0.3,0.2-0.4l0.1-0.1c0.1-0.1,0.1-0.2,0.2-0.3
				c0.1-0.2,0.4-0.4,0.6-0.5c0.6-0.2,1-0.1,1.2,0c0.3,0.1,0.5,0.2,0.6,0.3c0.7,0.4,1.2,0.8,1.7,1.2l1.6,1.2c1.1,0.8,2.2,1.5,3.3,2.1
				c2.3,1.3,4.7,2.1,7.3,2.7l7.8,2l3.9,0.9c0.6,0.1,1.3,0.3,1.9,0.4c0.3,0.1,0.6,0.1,0.9,0.2c0.1,0,0.3,0,0.4,0.1l0.2,0c0,0,0,0,0,0
				l1.3,0.9c0.8,5,1.4,10,1.7,15.2c0.1,1.3,0.1,2.6,0.1,3.9c-0.1,1.3-0.1,2.7-0.5,4c-0.9,2.5-1.9,4.8-2.9,7.1
				c-4,9.3-8.1,18.5-12.4,27.7c-2.1,4.6-4.3,9.1-6.6,13.7c-2.3,4.5-4.7,8.9-7.1,13.4l-7.1,13.4l-3.6,6.7c-1.1,2.2-2.5,4.4-3.9,6.6
				c-1.5,2.1-3.1,4.2-5.2,5.9c-1.1,0.8-2.2,1.6-3.6,2.1c-1.4,0.5-2.9,0.5-4.2,0.3c-2.7-0.4-5.1-1.3-7.5-2.2l-3.5-1.4
				c-0.6-0.2-1.2-0.5-1.7-0.7l-0.4-0.1l-0.4-0.1c-0.3-0.1-0.5-0.1-0.8-0.1c-10.1-0.9-20.3-3.7-29.1-9c-1.1-0.6-2.2-1.4-3.3-2.1
				c-1.1-0.7-2.1-1.4-3.1-2.2l-6.2-4.4l-12.4-8.7l-12.3-8.8l-6.1-4.5c-2-1.5-4-3-6-4.7c-0.4-0.4-0.5-1-0.1-1.4
				C61.7,264.3,62.3,264.3,62.8,264.7L62.8,264.7z"/>
		</g>
		<g>
			<path class="st11" d="M138.8,252c0,0,0.4,26.1,1.5,29.2"/>
			<path d="M139.2,252c0.2,4.9,0.4,9.7,0.7,14.6c0.1,2.4,0.3,4.9,0.5,7.3c0.1,1.2,0.2,2.4,0.3,3.6c0.1,0.6,0.1,1.2,0.2,1.8l0.1,0.9
				l0.2,0.7l0.1,0.2c0.1,0.5-0.2,1.1-0.7,1.2c-0.5,0.1-1.1-0.2-1.2-0.7c0,0,0,0,0,0c-0.1-0.4-0.2-0.7-0.2-1.1l-0.1-0.9
				c-0.1-0.6-0.1-1.2-0.2-1.9c-0.1-1.2-0.1-2.5-0.2-3.7c-0.1-2.4-0.1-4.9-0.2-7.3c-0.1-4.9-0.1-9.8-0.1-14.6c0-0.2,0.2-0.4,0.4-0.4
				C139,251.7,139.2,251.9,139.2,252z"/>
		</g>
		<g>
			<path class="st11" d="M143.6,253.2c0,0,5.5,13.6,4.4,18.9"/>
			<path d="M143.9,253.1c1.3,3,2.5,6.1,3.5,9.2c0.5,1.6,0.9,3.2,1.3,4.8c0.3,1.7,0.6,3.3,0.3,5.2c-0.1,0.5-0.6,0.9-1.1,0.8
				c-0.5-0.1-0.9-0.6-0.8-1.1c0,0,0,0,0-0.1l0-0.1c0.3-1.3,0.2-3,0-4.5c-0.2-1.6-0.5-3.2-0.9-4.7c-0.8-3.1-1.7-6.3-2.8-9.3l0,0
				c-0.1-0.2,0-0.4,0.2-0.4C143.6,252.8,143.8,252.9,143.9,253.1z"/>
		</g>
		<path class="st13" d="M64.9,155.6c0,0-8,3.5,15.5,10.7c23,7,26,9.7,26,9.7s-4.6,11,0.4,13.4c-14-4-56-17.9-52.4-22.9
			C58.2,161.5,64.9,155.6,64.9,155.6z"/>
		<path class="st13" d="M107.4,177.4c0,0,4.3,7.2,2.9,11.7c1.8-0.8,3.6-4.5,4-5.3c0.4-0.9-2.1-7.4-4.8-9
			C106.7,173,107.4,177.4,107.4,177.4z"/>
	</g>
</g>
</svg>
